<?xml version="1.0" standalone="no"?>
<!DOCTYPE svg PUBLIC "-//W3C//DTD SVG 20010904//EN"
 "http://www.w3.org/TR/2001/REC-SVG-20010904/DTD/svg10.dtd">
<svg version="1.0" xmlns="http://www.w3.org/2000/svg"
 width="1080.000000pt" height="1080.000000pt" viewBox="0 0 1080.000000 1080.000000"
 preserveAspectRatio="xMidYMid meet">
<metadata>
Created by potrace 1.14, written by Peter Selinger 2001-2017
</metadata>
<g transform="translate(0.000000,1080.000000) scale(0.100000,-0.100000)"
fill="#000000" stroke="none">
<path d="M8340 8358 c-30 -5 -86 -10 -125 -13 -38 -2 -74 -4 -78 -4 -5 -1 -5
-5 -2 -11 3 -6 -1 -7 -10 -4 -8 4 -21 2 -28 -4 -6 -5 -22 -8 -34 -7 -13 1 -23
-3 -23 -8 0 -5 -7 -7 -15 -4 -8 4 -17 2 -21 -4 -3 -6 -13 -8 -21 -5 -10 4 -13
2 -10 -6 3 -9 -5 -13 -22 -13 -36 -1 -151 -45 -151 -59 0 -6 -5 -4 -10 4 -7
11 -10 11 -10 2 0 -7 -4 -10 -10 -7 -5 3 -10 2 -10 -4 0 -5 -12 -8 -26 -5 -14
3 -23 1 -20 -5 3 -5 -2 -15 -11 -22 -14 -12 -16 -12 -9 1 4 9 1 8 -7 -2 -16
-21 -31 -24 -22 -5 4 6 -3 1 -15 -13 -12 -14 -19 -19 -15 -12 3 6 2 12 -3 12
-6 0 -13 -8 -16 -17 -6 -14 -9 -15 -15 -4 -6 9 -10 6 -15 -11 -5 -19 -8 -20
-16 -8 -8 13 -10 13 -10 -2 0 -11 -6 -16 -19 -13 -15 3 -18 -1 -14 -12 4 -10
2 -14 -5 -9 -6 3 -13 2 -17 -4 -4 -6 -11 -8 -16 -4 -5 3 -8 0 -7 -7 2 -7 -4
-14 -12 -14 -8 0 -14 -6 -13 -13 2 -6 -4 -9 -12 -6 -9 4 -15 0 -15 -9 0 -8 -8
-14 -17 -13 -11 0 -17 -5 -15 -13 3 -12 0 -12 -13 -1 -13 11 -15 10 -9 -4 4
-11 2 -16 -7 -14 -8 2 -13 -3 -12 -9 2 -7 0 -12 -5 -11 -4 1 -17 -3 -28 -10
-12 -6 -25 -8 -30 -4 -5 4 -2 -2 6 -12 10 -13 10 -17 3 -12 -7 4 -13 2 -13 -3
0 -6 -7 -11 -15 -11 -9 0 -18 -7 -21 -15 -4 -8 -10 -15 -16 -15 -5 0 -6 5 -2
12 4 7 3 8 -5 4 -6 -4 -9 -12 -6 -17 4 -5 1 -9 -5 -9 -6 0 -8 -4 -5 -10 4 -6
-1 -7 -11 -3 -12 4 -15 3 -10 -5 4 -7 1 -12 -9 -12 -9 0 -13 -4 -10 -10 3 -6
-1 -7 -9 -4 -15 6 -22 -11 -17 -39 1 -5 -3 -6 -9 -2 -6 3 -7 12 -3 18 4 7 0 6
-10 -2 -9 -7 -14 -17 -11 -22 3 -5 -3 -9 -12 -9 -10 0 -15 -3 -11 -6 7 -7 -35
-50 -45 -47 -5 2 -8 -2 -8 -7 0 -6 -8 -18 -17 -28 -10 -9 -31 -33 -47 -52 -15
-19 -25 -29 -21 -22 3 6 1 12 -4 12 -10 0 -15 -14 -12 -32 0 -4 -6 -5 -14 -2
-10 4 -15 0 -15 -11 0 -9 -4 -13 -10 -10 -5 3 -10 -1 -10 -10 0 -11 -5 -15
-14 -12 -11 4 -13 1 -9 -10 4 -11 2 -14 -5 -9 -7 4 -12 1 -12 -8 0 -8 -5 -18
-12 -22 -7 -5 -8 -3 -3 6 6 9 4 11 -4 6 -7 -5 -10 -14 -8 -20 3 -7 -4 -18 -14
-25 -11 -6 -17 -16 -14 -20 2 -5 -7 -12 -20 -15 -14 -4 -23 -11 -20 -16 8 -12
-39 -57 -59 -57 -8 0 -13 4 -10 9 3 5 0 15 -6 23 -10 12 -10 15 1 15 9 1 6 5
-6 13 -11 7 -21 25 -23 42 -2 16 -8 33 -14 36 -5 3 -9 9 -9 13 3 20 0 26 -10
20 -8 -4 -8 0 0 15 8 14 8 21 1 21 -5 0 -10 7 -10 16 0 8 -4 12 -10 9 -5 -3
-10 3 -10 15 0 12 -4 18 -10 15 -5 -3 -10 1 -10 10 0 9 -4 13 -10 10 -5 -3
-10 -1 -10 5 0 6 -5 8 -10 5 -6 -4 -9 -1 -8 7 4 18 -106 19 -148 2 -17 -7 -34
-10 -38 -7 -3 4 -6 0 -6 -8 0 -8 -9 -16 -20 -17 -44 -4 -50 -6 -50 -15 0 -6
-3 -7 -7 -4 -3 4 -12 2 -20 -4 -7 -6 -13 -8 -13 -4 0 4 -11 0 -25 -9 -14 -9
-30 -14 -34 -11 -5 3 -11 0 -13 -6 -2 -7 -19 -13 -38 -16 -19 -2 -39 -9 -45
-16 -5 -8 -15 -12 -21 -10 -7 2 -19 -3 -28 -12 -9 -9 -16 -12 -16 -7 0 6 -10
6 -24 -1 -13 -7 -22 -16 -18 -22 3 -5 -1 -4 -10 3 -11 9 -17 9 -20 2 -2 -6
-12 -12 -21 -14 -10 -1 -23 -9 -28 -17 -5 -9 -9 -10 -9 -2 0 9 -7 8 -27 -2
-15 -8 -30 -12 -35 -9 -4 3 -8 1 -8 -4 0 -9 -29 -20 -75 -29 -10 -2 -23 -9
-27 -16 -6 -9 -10 -9 -17 2 -7 11 -10 10 -13 -5 -2 -10 -10 -19 -18 -20 -44
-3 -51 -5 -45 -14 3 -6 -1 -7 -9 -4 -9 3 -16 2 -16 -4 0 -6 -10 -8 -22 -4 -17
4 -20 2 -15 -12 4 -10 3 -15 -3 -11 -6 3 -13 -1 -16 -9 -3 -9 -10 -14 -14 -11
-4 3 -10 -5 -14 -18 -5 -19 -8 -20 -17 -7 -9 12 -10 10 -6 -8 4 -18 2 -22 -9
-18 -13 5 -19 -6 -15 -27 1 -5 -3 -6 -9 -2 -5 3 -10 1 -10 -5 0 -7 -7 -9 -16
-6 -14 5 -15 4 -5 -8 9 -11 9 -16 0 -22 -8 -4 -9 -3 -5 4 4 7 2 12 -3 12 -6 0
-11 -7 -11 -15 0 -8 -4 -15 -9 -15 -5 0 -13 -9 -16 -21 -4 -12 -13 -18 -20
-15 -8 3 -17 -3 -20 -15 -4 -11 -11 -16 -17 -13 -8 5 -9 1 -5 -10 6 -14 3 -17
-9 -12 -11 4 -15 2 -11 -8 4 -10 1 -13 -9 -9 -8 3 -14 -1 -14 -11 0 -9 -7 -16
-15 -16 -8 0 -15 -5 -15 -11 0 -5 5 -7 10 -4 16 10 11 -1 -7 -16 -11 -10 -14
-10 -9 -1 4 6 2 12 -3 12 -6 0 -11 -5 -11 -11 0 -5 -6 -7 -12 -3 -9 5 -8 2 1
-9 12 -15 12 -17 -1 -12 -8 3 -21 -2 -29 -12 -13 -16 -12 -17 4 -4 9 7 17 9
17 3 0 -5 -13 -15 -30 -22 -16 -7 -27 -17 -24 -22 4 -6 3 -13 -2 -17 -17 -11
-34 -60 -23 -66 5 -4 6 -13 0 -22 -7 -14 5 -69 19 -83 3 -3 7 -18 8 -34 2 -16
10 -36 18 -43 8 -8 12 -19 9 -24 -4 -5 -1 -9 4 -9 6 0 11 -13 11 -30 0 -16 5
-30 10 -30 6 0 10 -9 10 -19 0 -11 7 -27 16 -35 12 -12 12 -16 2 -16 -11 0
-11 -2 0 -9 10 -6 10 -10 -3 -21 -13 -11 -18 -10 -31 6 -9 10 -13 13 -9 7 8
-17 -3 -16 -20 1 -8 7 -11 17 -7 20 3 4 -1 4 -10 1 -9 -4 -18 0 -21 9 -4 10
-13 13 -23 9 -11 -4 -15 -3 -10 5 3 6 2 13 -4 17 -5 3 -10 0 -11 -7 0 -7 -4
-3 -9 10 -5 12 -16 22 -25 22 -8 0 -15 5 -15 11 0 5 -5 7 -10 4 -6 -3 -14 4
-19 17 -9 21 -10 21 -11 3 -1 -19 -2 -19 -13 3 -7 12 -16 19 -20 16 -4 -4 -7
1 -7 12 0 16 -2 17 -10 4 -6 -10 -10 -11 -10 -2 0 6 -7 12 -16 12 -8 0 -13 4
-10 9 3 5 -1 12 -10 15 -10 4 -13 2 -8 -6 4 -7 3 -8 -4 -4 -7 4 -12 15 -12 24
0 15 -2 15 -10 2 -8 -13 -10 -12 -10 3 0 10 -4 15 -10 12 -5 -3 -10 -1 -10 5
0 6 -4 9 -9 6 -5 -3 -11 4 -14 16 -5 19 -8 20 -23 7 -12 -9 -15 -10 -10 -1 4
6 2 12 -3 12 -6 0 -11 8 -12 18 0 15 -1 14 -8 -2 -7 -19 -8 -19 -13 2 -4 12
-14 22 -23 22 -10 0 -24 8 -32 18 -10 11 -12 12 -8 2 4 -10 2 -9 -8 2 -8 10
-17 15 -20 11 -4 -3 -7 0 -7 7 0 7 -3 10 -7 7 -3 -4 -12 2 -20 13 -8 11 -21
20 -29 20 -8 0 -14 5 -14 11 0 5 -4 8 -9 4 -6 -3 -14 3 -20 12 -9 16 -12 16
-21 3 -8 -12 -10 -10 -10 10 0 20 -2 22 -10 10 -6 -10 -10 -11 -10 -3 0 15
-49 14 -69 -1 -11 -8 -13 -8 -7 1 5 9 2 11 -8 7 -9 -3 -13 -10 -10 -16 3 -5 0
-8 -7 -7 -16 2 -42 -6 -82 -26 -15 -8 -25 -10 -22 -5 3 6 2 10 -3 10 -6 0 -12
-7 -16 -15 -3 -8 -14 -15 -25 -15 -11 0 -22 -4 -25 -9 -4 -5 -14 -8 -24 -7 -9
2 -20 -2 -24 -7 -6 -9 -16 -12 -65 -19 -7 -1 -15 -8 -17 -15 -3 -8 -11 -11
-16 -8 -6 4 -17 1 -25 -5 -8 -7 -15 -9 -15 -6 0 4 -10 1 -22 -6 -22 -13 -29
-14 -56 -17 -7 0 -11 -5 -8 -9 3 -5 0 -9 -7 -9 -25 -1 -64 -11 -99 -26 -20 -8
-39 -13 -42 -9 -3 3 -6 0 -6 -7 0 -7 -4 -10 -9 -6 -5 3 -17 -2 -25 -11 -9 -8
-16 -12 -16 -8 0 3 -7 1 -15 -6 -12 -10 -15 -10 -15 1 0 10 -3 10 -8 3 -4 -7
-16 -14 -27 -16 -11 -2 -19 -11 -17 -19 2 -8 0 -11 -4 -7 -4 4 -14 2 -22 -5
-13 -10 -14 -9 -7 3 7 12 5 12 -11 -1 -10 -9 -25 -14 -31 -12 -7 3 -13 -2 -13
-10 0 -10 -7 -13 -19 -10 -11 3 -21 -2 -25 -12 -5 -14 -9 -15 -21 -5 -12 10
-15 10 -15 0 0 -7 -7 -10 -15 -6 -8 3 -15 0 -15 -6 0 -6 -3 -8 -7 -5 -3 4 -12
-1 -20 -11 -9 -10 -11 -11 -7 -2 7 12 5 13 -8 3 -8 -7 -18 -10 -21 -6 -4 3 -7
1 -7 -6 0 -7 -4 -10 -8 -7 -5 3 -22 -2 -38 -10 -16 -9 -31 -16 -34 -17 -3 -1
-4 -5 -3 -8 1 -4 -7 -5 -17 -2 -11 3 -20 1 -20 -4 0 -8 -8 -10 -64 -16 -13 -1
-24 -6 -23 -12 1 -5 -5 -9 -13 -10 -8 0 -25 -6 -36 -12 -12 -7 -24 -9 -28 -6
-3 3 -16 -2 -28 -13 -14 -12 -18 -14 -13 -4 4 8 -2 5 -14 -7 -22 -24 -37 -31
-26 -13 3 6 2 10 -4 10 -5 0 -11 -5 -13 -10 -2 -6 -16 -13 -32 -16 -16 -3 -41
-11 -56 -19 -15 -8 -31 -11 -34 -7 -4 3 -11 0 -16 -8 -5 -8 -15 -15 -22 -15
-7 -1 -12 -7 -10 -13 2 -10 -3 -10 -18 -2 -20 11 -26 3 -21 -24 1 -5 -5 -3
-14 4 -13 11 -15 10 -9 -4 5 -12 2 -15 -12 -9 -12 4 -15 3 -10 -5 4 -7 2 -12
-3 -12 -6 0 -10 -6 -8 -12 1 -7 -4 -12 -11 -10 -7 1 -15 -5 -18 -13 -3 -8 -11
-12 -18 -8 -6 4 -5 -1 3 -10 12 -15 12 -17 -1 -12 -9 4 -18 -1 -22 -10 -3 -9
-10 -14 -15 -10 -5 3 -13 0 -17 -6 -5 -8 -3 -9 7 -4 12 8 12 6 0 -8 -7 -9 -18
-14 -24 -10 -6 3 -7 1 -3 -5 4 -7 2 -12 -4 -12 -7 0 -9 -7 -6 -16 5 -14 4 -15
-8 -5 -16 14 -25 4 -21 -22 3 -15 1 -16 -13 -5 -9 7 -13 8 -9 2 4 -7 0 -14 -8
-18 -8 -3 -20 -17 -27 -31 -6 -14 -17 -25 -25 -25 -7 0 -13 -5 -13 -11 0 -5
-6 -7 -13 -3 -9 6 -9 4 1 -8 11 -14 10 -16 -5 -13 -27 4 -35 -5 -21 -23 10
-12 10 -14 1 -8 -14 8 -40 -3 -45 -19 -2 -5 -7 -9 -11 -7 -5 1 -6 -2 -2 -8 3
-5 1 -10 -5 -10 -6 0 -8 -4 -5 -10 3 -5 -1 -10 -9 -10 -8 0 -18 -5 -22 -12 -4
-7 -3 -8 4 -4 7 4 12 1 12 -8 0 -8 -3 -17 -8 -20 -9 -5 -8 -94 1 -103 4 -3 1
-13 -6 -21 -6 -9 -7 -13 -1 -9 6 3 19 -13 31 -38 11 -25 15 -42 9 -38 -6 3 -5
0 1 -8 7 -7 13 -21 13 -31 0 -9 8 -22 18 -27 11 -7 13 -10 3 -11 -10 0 -11 -3
-2 -13 6 -8 8 -17 4 -20 -3 -4 -1 -7 5 -7 7 0 12 -9 12 -19 0 -11 5 -23 10
-26 6 -4 8 -10 5 -15 -3 -5 0 -14 7 -22 14 -15 21 -33 22 -60 0 -10 3 -18 7
-18 4 0 10 -7 13 -16 3 -8 2 -12 -4 -9 -6 3 -7 -1 -4 -10 4 -9 13 -14 21 -11
11 4 11 1 3 -14 -8 -14 -8 -20 0 -20 6 0 8 -4 5 -10 -3 -5 -1 -10 4 -10 6 0
11 -11 11 -25 0 -25 17 -64 33 -76 5 -3 8 -9 8 -13 -4 -26 1 -46 8 -41 6 3 8
-3 6 -14 -2 -11 3 -22 11 -25 8 -3 14 -11 13 -18 0 -10 -2 -10 -6 0 -2 6 -9
12 -15 12 -6 0 -4 -8 5 -18 10 -10 17 -24 17 -31 0 -7 4 -10 9 -7 5 4 8 -5 6
-19 -1 -14 1 -25 6 -25 4 0 6 -9 4 -20 -2 -11 0 -18 6 -15 5 4 9 -1 9 -10 0
-9 4 -14 9 -11 5 4 7 -2 5 -11 -3 -10 4 -35 15 -55 10 -21 15 -38 9 -38 -5 0
-6 -5 -3 -10 4 -6 11 -7 17 -4 6 4 8 3 5 -3 -3 -5 1 -22 8 -37 8 -16 12 -32 9
-37 -3 -5 -1 -9 5 -9 5 0 8 -9 6 -19 -2 -11 3 -22 11 -25 7 -3 11 -12 8 -21
-3 -8 -1 -15 5 -15 6 0 11 -9 11 -21 0 -13 4 -18 13 -13 8 5 8 2 -2 -9 -7 -9
-9 -17 -4 -17 5 0 15 -20 22 -45 7 -25 16 -45 20 -45 4 0 8 -9 9 -20 4 -42 6
-50 12 -50 4 0 7 -7 8 -15 1 -8 3 -22 4 -30 1 -8 8 -15 17 -15 14 0 14 -2 1
-10 -11 -7 -11 -10 -2 -10 7 0 10 -4 7 -10 -3 -5 -1 -10 6 -10 8 0 7 -5 -2
-17 -10 -11 -10 -14 -1 -9 11 6 17 -5 13 -26 0 -5 4 -8 10 -8 8 0 7 -6 -2 -17
-8 -9 -9 -14 -4 -11 13 7 29 -11 33 -37 2 -11 9 -26 15 -34 9 -12 9 -13 0 -7
-7 4 -13 3 -13 -3 0 -5 5 -11 11 -13 5 -2 11 -12 13 -21 1 -10 9 -23 17 -28
12 -7 12 -9 -1 -9 -12 -1 -12 -3 3 -14 9 -7 15 -20 12 -28 -4 -9 0 -22 8 -29
8 -8 13 -22 11 -32 -1 -9 2 -17 7 -17 6 0 7 -5 4 -10 -3 -5 -1 -10 4 -10 6 0
11 -9 11 -19 0 -11 4 -22 9 -25 4 -3 7 -17 6 -31 -2 -14 1 -25 5 -25 5 0 7 -9
5 -20 -2 -11 -1 -20 3 -20 4 0 7 -13 7 -30 1 -16 -3 -30 -8 -30 -4 0 -5 -4 -2
-10 7 -11 8 -11 -58 -13 -26 -1 -47 2 -47 6 0 5 -4 6 -9 3 -11 -7 -63 19 -54
27 3 4 -6 7 -21 7 -19 0 -29 6 -33 19 -3 12 -12 18 -23 16 -13 -3 -17 1 -13
11 3 8 0 14 -7 14 -6 0 -8 5 -4 13 5 7 0 6 -11 -3 -17 -14 -18 -13 -12 3 3 9
3 17 -1 17 -5 0 -17 7 -28 16 -10 8 -12 13 -4 9 8 -4 2 5 -13 19 -23 22 -25
26 -10 27 14 0 13 2 -6 10 -15 6 -21 14 -17 25 3 8 2 13 -2 10 -4 -3 -14 4
-21 16 -10 16 -10 19 1 12 10 -6 10 -4 -1 9 -7 9 -18 14 -25 10 -6 -4 -5 1 3
10 9 12 10 17 2 17 -7 0 -10 4 -6 9 3 5 1 12 -5 16 -6 4 -8 11 -5 16 4 5 2 9
-4 9 -6 0 -8 7 -5 15 4 9 0 15 -7 15 -11 0 -11 3 1 10 13 8 12 10 -4 10 -11 0
-16 3 -13 7 4 3 1 16 -6 27 -8 12 -13 31 -12 44 1 12 -3 22 -8 22 -6 0 -7 3
-4 7 4 3 -1 12 -11 20 -9 8 -11 12 -5 8 9 -4 11 -1 7 9 -3 9 -10 16 -16 16 -5
0 -7 4 -3 9 3 5 1 12 -5 16 -5 3 -10 19 -10 35 0 17 -7 33 -17 38 -10 6 -14
16 -10 26 4 9 2 16 -4 16 -6 0 -7 5 -4 10 3 6 0 10 -7 10 -9 0 -9 3 2 10 10 6
11 10 3 10 -7 0 -13 9 -13 21 0 13 -4 18 -12 13 -7 -4 -10 -4 -6 0 3 4 0 23
-8 42 -8 19 -11 34 -7 34 5 0 -1 7 -11 15 -14 11 -16 15 -5 15 12 1 11 3 -1
13 -9 7 -14 20 -12 31 2 11 0 16 -7 12 -7 -5 -9 -1 -5 8 3 9 1 16 -5 16 -6 0
-8 7 -5 15 4 8 1 15 -5 15 -6 0 -10 3 -10 8 4 25 -2 42 -13 36 -9 -5 -9 -2 1
9 12 15 11 17 -3 17 -10 0 -14 5 -11 10 4 6 -1 22 -10 36 -9 13 -13 29 -10 34
3 5 1 11 -5 15 -5 3 -10 15 -10 26 0 10 -5 19 -11 19 -5 0 -7 5 -4 10 4 6 1
17 -5 25 -7 8 -9 15 -4 15 5 0 3 4 -3 8 -7 5 -14 20 -15 35 -1 15 -6 27 -10
27 -4 0 -8 9 -8 20 0 11 -5 20 -11 20 -5 0 -7 5 -4 10 3 6 0 10 -7 10 -9 0 -9
3 2 10 11 7 11 10 2 10 -7 0 -10 5 -7 10 3 6 2 10 -4 10 -5 0 -8 9 -6 20 2 12
-2 20 -9 20 -8 0 -14 11 -14 26 0 15 -6 30 -13 35 -12 7 -12 9 0 9 9 0 6 7 -9
20 -21 19 -20 25 5 21 6 -1 -1 7 -14 17 -13 11 -21 24 -17 31 4 6 0 14 -9 17
-13 6 -14 8 -3 15 11 7 11 9 -1 9 -7 0 -11 6 -7 15 3 8 1 15 -5 15 -6 0 -8 4
-4 9 3 5 0 13 -6 16 -5 4 -8 13 -5 20 2 7 -1 16 -9 19 -8 3 -11 13 -8 25 3 13
1 21 -6 21 -7 0 -9 5 -6 10 3 6 2 10 -4 10 -6 0 -8 7 -5 15 4 8 2 15 -3 15 -5
0 -15 21 -22 48 -8 26 -18 53 -24 60 -5 6 -6 12 -1 12 4 0 -1 7 -12 15 -11 8
-14 14 -6 15 9 0 8 7 -4 25 -9 14 -13 25 -8 25 4 0 3 5 -4 12 -7 7 -12 20 -12
30 0 10 -4 18 -10 18 -5 0 -7 7 -4 15 4 8 1 15 -6 15 -6 0 -8 5 -5 10 3 6 1
10 -5 10 -6 0 -9 4 -6 9 3 5 -4 11 -15 14 -13 4 -18 10 -13 18 4 8 3 10 -4 5
-7 -4 -12 -3 -12 3 0 5 -21 13 -46 17 -39 6 -62 1 -148 -31 -157 -58 -228 -85
-266 -100 -19 -7 -87 -32 -150 -55 -63 -23 -127 -48 -142 -56 -16 -8 -28 -13
-28 -10 0 3 -21 -4 -47 -15 -27 -12 -55 -22 -64 -24 -65 -13 -116 -55 -319
-257 -117 -117 -216 -223 -221 -236 -16 -41 -10 -85 26 -182 20 -52 38 -102
42 -110 3 -8 7 -17 8 -20 1 -3 5 -14 9 -25 4 -11 16 -42 26 -70 17 -47 154
-413 303 -815 36 -96 102 -274 147 -395 113 -306 162 -422 232 -555 122 -232
280 -433 444 -565 27 -21 51 -42 54 -45 13 -16 165 -103 240 -139 88 -41 225
-85 301 -96 24 -4 52 -11 62 -17 21 -11 336 -13 377 -2 14 3 45 7 70 9 25 2
59 6 75 10 17 4 37 7 45 8 8 0 20 4 27 9 7 5 16 7 22 4 5 -3 11 -2 13 3 1 5
17 10 33 12 17 2 37 9 47 17 11 9 18 10 23 2 5 -8 11 -7 22 2 9 7 21 13 27 14
6 0 19 2 29 2 10 1 16 6 13 11 -3 4 6 7 19 5 14 -1 25 2 25 7 0 4 7 5 17 2 11
-4 14 -3 9 5 -4 7 -1 13 8 13 9 1 21 3 26 4 6 1 15 3 21 4 5 0 7 6 3 13 -4 6
-3 8 3 5 11 -7 86 17 78 25 -3 3 6 8 20 12 14 4 25 11 25 16 0 5 7 7 15 4 8
-4 15 -1 15 6 0 6 4 9 9 5 6 -3 14 1 18 10 5 8 21 16 35 17 15 1 24 6 22 10
-3 4 1 8 9 8 8 0 26 11 40 24 19 17 28 21 37 12 8 -8 9 -6 4 8 -5 13 -4 17 3
13 6 -4 14 0 17 9 4 9 9 14 13 10 3 -3 13 3 20 14 8 11 19 18 24 14 6 -3 17 3
25 15 9 12 20 19 25 16 5 -4 9 2 9 12 0 14 2 15 9 5 6 -10 10 -8 14 8 3 12 10
19 15 16 5 -3 15 8 22 24 7 16 15 29 19 28 21 -2 31 4 31 22 0 13 5 18 15 14
9 -4 15 0 15 10 0 9 6 16 14 16 8 0 19 12 24 28 6 15 11 20 12 12 0 -10 6 -6
15 10 8 14 14 19 15 12 0 -7 5 -10 10 -7 6 4 7 11 4 17 -5 7 -1 9 9 5 9 -3 19
-1 23 5 4 7 3 8 -4 4 -7 -4 -12 -3 -12 3 0 5 9 13 20 16 11 4 18 11 15 16 -4
5 1 9 10 9 8 0 20 11 25 25 5 14 12 25 15 25 4 0 3 -4 0 -10 -3 -6 1 -7 10 -4
11 5 13 10 5 19 -9 11 -7 12 8 8 23 -5 38 12 21 23 -8 5 -9 3 -4 -6 5 -9 4
-11 -4 -6 -6 4 -9 12 -5 17 3 5 10 7 15 4 5 -4 9 -2 9 4 0 6 8 7 17 4 12 -5
15 -2 10 10 -4 10 1 18 13 22 11 3 19 12 17 18 -1 7 4 11 11 9 8 -1 16 7 19
18 3 11 9 17 14 14 8 -4 12 7 11 26 0 3 12 5 26 5 23 0 27 -5 29 -30 2 -16 7
-31 13 -33 6 -2 8 -8 4 -13 -3 -5 0 -9 7 -9 7 0 9 -3 6 -7 -4 -3 1 -15 10 -26
10 -11 12 -17 6 -13 -19 11 -16 -10 4 -29 14 -14 14 -18 2 -27 -11 -7 -8 -9 9
-5 17 4 22 1 22 -14 0 -11 7 -19 16 -19 8 0 12 -4 9 -10 -7 -11 -4 -12 78 -15
31 -1 57 1 57 6 0 4 11 6 25 4 15 -1 29 4 35 14 5 9 10 12 10 7 0 -5 8 -2 17
5 14 12 16 12 9 -1 -6 -11 -4 -11 6 1 7 9 21 15 31 13 9 -1 17 1 17 4 0 4 10
13 21 21 18 11 23 11 30 -1 7 -10 9 -8 9 6 0 15 3 16 15 6 8 -7 15 -8 15 -2 0
5 10 13 23 17 12 4 25 8 30 10 4 1 12 3 18 4 5 0 8 5 4 10 -3 6 4 8 16 6 12
-3 35 5 50 16 16 11 33 17 39 14 5 -3 10 -2 10 4 0 6 7 8 15 5 8 -4 15 -1 15
7 0 7 3 9 7 6 3 -4 13 -1 21 6 13 9 14 9 8 0 -5 -9 -2 -11 8 -7 9 3 13 10 10
15 -3 5 6 9 20 9 14 0 28 5 31 10 4 6 11 8 16 5 5 -4 9 -1 9 5 0 6 4 9 9 6 13
-8 62 19 53 30 -4 4 1 2 11 -5 13 -10 17 -11 17 -1 0 8 8 10 21 7 15 -4 18 -3
9 7 -8 10 -5 12 15 8 17 -3 25 0 25 9 0 11 2 11 10 -1 6 -10 10 -11 10 -3 0 7
3 12 8 12 21 -4 32 2 26 13 -5 7 -2 9 8 5 9 -3 21 0 28 6 10 9 11 9 6 -3 -4
-8 1 -4 12 9 11 14 24 21 31 17 6 -4 11 -4 10 1 -3 20 2 33 14 30 7 -1 11 6 9
17 -3 18 -2 18 14 5 10 -7 15 -9 11 -3 -4 7 4 19 18 28 14 9 25 23 25 31 0 8
5 15 12 15 16 0 120 109 113 120 -3 5 4 7 16 5 17 -4 19 -2 8 11 -10 12 -9 13
6 8 13 -5 16 -4 11 4 -4 7 -1 12 7 12 17 0 58 46 49 56 -4 4 1 4 10 1 13 -4
16 -1 13 14 -2 11 0 17 6 13 13 -8 39 27 31 41 -3 5 1 4 9 -2 18 -15 18 -17
22 75 1 34 -1 62 -7 62 -5 0 -6 3 -3 6 4 4 -3 15 -15 25 -11 11 -17 19 -13 19
5 0 4 5 -3 12 -7 7 -12 20 -12 30 0 9 -6 21 -12 25 -7 4 -19 19 -26 32 -8 12
-9 20 -3 16 6 -3 11 -1 11 4 0 6 -4 11 -9 11 -12 0 -8 43 4 52 6 5 6 8 -1 8
-6 0 -11 6 -12 13 -2 24 -8 47 -15 53 -4 4 -7 16 -7 26 0 11 -4 17 -8 14 -4
-2 -9 10 -10 27 -1 21 1 27 7 19 4 -8 11 -13 15 -13 3 1 14 1 24 1 14 0 15 -2
2 -10 -12 -8 -10 -10 8 -10 13 0 20 -4 17 -10 -3 -5 0 -7 8 -4 9 3 21 -4 29
-15 8 -12 17 -18 20 -15 4 3 9 -4 13 -15 3 -12 11 -19 16 -15 6 3 20 -2 31
-13 12 -10 19 -13 15 -7 -3 6 0 11 8 11 8 0 13 -3 11 -6 -2 -3 2 -11 9 -18 11
-10 15 -10 18 0 4 9 6 9 6 0 1 -7 7 -13 14 -13 16 0 67 -54 67 -72 0 -10 3 -9
10 2 8 12 10 10 10 -8 0 -13 4 -20 10 -17 6 3 10 -1 10 -9 0 -9 5 -16 11 -16
5 0 7 -5 3 -12 -5 -7 -3 -8 5 -4 7 5 20 1 30 -8 10 -9 22 -16 27 -15 28 5 54
-2 48 -13 -5 -8 0 -9 15 -5 18 4 20 3 10 -9 -10 -12 -9 -13 5 -8 10 4 18 0 22
-10 3 -9 12 -16 20 -16 8 0 19 -9 26 -19 10 -16 15 -18 27 -8 12 9 13 9 7 0
-4 -8 -2 -13 4 -13 6 0 8 -5 5 -10 -4 -6 -3 -10 2 -9 21 4 34 -2 27 -13 -5 -7
-2 -9 9 -5 9 3 18 0 21 -9 3 -8 19 -20 36 -25 16 -6 27 -15 24 -20 -3 -5 0 -9
5 -9 6 0 11 6 11 13 0 6 5 4 11 -6 6 -9 14 -15 19 -12 5 3 11 1 15 -4 4 -7 15
-7 33 0 15 6 28 10 30 10 13 -4 22 1 16 11 -4 6 -3 8 3 5 5 -3 22 0 37 8 14 8
24 10 21 5 -3 -6 1 -7 9 -4 9 3 16 10 16 14 0 5 9 7 20 5 11 -2 18 0 15 6 -4
5 4 9 16 9 12 0 28 8 36 18 8 9 12 11 8 5 -3 -7 -1 -13 4 -13 6 0 11 5 11 11
0 5 4 8 9 4 5 -3 12 -1 16 5 4 6 10 8 15 5 5 -3 11 -1 15 5 4 6 11 8 16 5 5
-4 12 0 15 8 3 8 16 13 30 11 13 -1 24 2 24 7 0 6 5 7 10 4 6 -3 10 -1 10 6 0
7 3 10 6 6 4 -3 21 0 39 8 19 7 36 11 39 7 3 -3 6 3 6 13 0 14 3 15 15 5 12
-10 16 -9 21 3 3 9 12 13 20 10 8 -3 14 -1 14 5 0 6 8 9 17 8 10 -2 24 3 31
11 8 7 18 11 23 8 5 -4 9 -1 9 5 0 6 4 9 8 6 4 -2 27 4 51 15 24 10 49 19 56
19 7 0 15 9 18 20 3 13 14 20 29 20 18 0 20 2 8 10 -15 9 -13 11 11 14 7 0 15
9 18 19 4 10 11 19 16 20 6 1 9 8 7 15 -4 16 15 16 21 0 3 -7 6 -3 6 9 1 12 5
25 11 28 6 3 8 -2 5 -12 -3 -10 1 -6 8 10 7 15 16 24 20 21 4 -4 7 0 7 9 0 9
5 19 12 23 7 5 9 2 4 -7 -4 -8 -1 -6 7 4 8 9 20 17 28 17 11 0 11 2 -1 10 -13
8 -13 10 1 10 9 0 23 8 30 18 12 15 12 16 -1 7 -9 -5 -7 -2 3 7 11 10 23 15
28 12 5 -3 6 2 3 11 -5 11 -2 14 12 9 11 -4 16 -4 12 1 -4 4 1 15 10 24 10 9
13 14 7 11 -6 -3 -2 3 8 12 11 10 23 15 28 12 5 -3 6 2 3 11 -5 11 -2 14 10 9
9 -4 16 -3 15 2 -4 22 2 48 9 39 11 -15 32 -17 32 -2 0 9 2 9 8 0 4 -6 31 -13
60 -15 28 -2 52 -6 52 -10 0 -3 18 -5 40 -4 24 2 37 -1 33 -7 -4 -6 0 -8 9 -4
9 3 19 3 22 -1 10 -9 106 -9 106 0 0 5 8 5 18 1 21 -11 63 -10 80 0 6 5 12 4
12 -1 0 -7 59 -9 68 -2 1 2 6 3 11 4 5 0 12 4 15 7 3 3 29 4 58 3 28 -2 57 0
63 5 9 7 42 12 98 14 9 1 17 5 17 9 0 4 3 7 8 7 4 -1 9 0 12 1 9 3 44 10 63
12 9 1 17 6 17 11 0 4 5 5 10 2 6 -4 18 -1 27 7 9 7 17 11 17 9 2 -5 89 20
111 32 11 6 22 12 25 13 10 2 87 37 150 67 310 149 581 377 821 692 163 214
278 411 374 640 17 39 62 191 69 229 3 16 10 52 16 80 5 28 13 69 16 91 10 66
13 436 3 495 -5 30 -11 71 -13 90 -27 195 -154 554 -239 674 -12 17 -20 31
-18 31 8 0 -59 104 -128 199 -64 87 -265 300 -326 346 -11 8 -38 29 -60 45
-216 164 -514 291 -775 331 -19 2 -51 7 -70 10 -60 10 -292 11 -350 2z m-118
-1557 c35 -16 72 -27 93 -26 28 2 35 -1 30 -13 -5 -13 -3 -13 12 -1 9 8 14 9
10 3 -8 -13 19 -29 56 -33 8 -1 7 -4 -3 -11 -12 -8 -11 -10 8 -10 12 0 22 -5
22 -11 0 -5 5 -7 12 -3 8 5 9 2 5 -9 -4 -11 -1 -17 8 -17 8 0 15 -5 15 -11 0
-5 5 -7 10 -4 6 4 10 3 9 -2 -4 -15 13 -43 23 -37 5 3 12 -3 15 -15 3 -12 9
-21 14 -21 5 0 9 -7 9 -15 0 -8 9 -23 20 -32 11 -10 20 -23 20 -30 0 -7 5 -13
11 -13 5 0 7 -4 4 -10 -3 -5 -1 -10 5 -10 6 0 9 -4 6 -8 -3 -5 2 -20 12 -33 9
-13 18 -31 19 -39 1 -8 7 -16 13 -18 5 -2 8 -8 4 -13 -3 -5 3 -9 12 -9 14 0
15 -3 6 -12 -8 -8 -8 -16 -2 -23 6 -7 11 -24 12 -39 1 -14 7 -26 13 -26 5 0 3
-5 -5 -10 -12 -8 -12 -10 -1 -10 8 0 11 -3 8 -6 -3 -4 -1 -16 4 -27 16 -30 20
-61 22 -194 1 -74 -1 -121 -7 -120 -6 1 -11 -5 -11 -13 0 -8 -6 -14 -13 -13
-7 2 -11 -3 -9 -10 1 -6 -4 -11 -10 -10 -7 2 -12 -3 -10 -10 1 -6 -5 -12 -13
-12 -8 0 -22 -5 -30 -10 -22 -14 -173 -15 -182 -1 -5 7 -8 6 -8 -4 0 -12 -2
-12 -8 -2 -5 7 -23 14 -40 15 -18 1 -32 6 -32 11 0 4 -7 5 -16 2 -8 -3 -12 -2
-9 4 3 5 -6 12 -20 16 -14 3 -25 11 -25 18 0 6 -5 4 -10 -4 -8 -13 -10 -12
-10 3 0 10 -4 15 -10 12 -5 -3 -10 -1 -10 5 0 6 -4 8 -10 5 -5 -3 -10 1 -10
10 0 9 -4 13 -10 10 -5 -3 -10 1 -10 9 0 9 -6 16 -13 16 -7 0 -29 16 -48 37
-18 20 -27 32 -19 28 8 -4 5 2 -7 14 -24 23 -39 28 -27 9 4 -6 3 -8 -4 -5 -5
4 -8 17 -4 29 4 18 2 20 -14 14 -10 -4 -15 -4 -12 0 4 3 0 21 -9 38 -10 17
-16 35 -15 40 2 4 -4 13 -12 20 -9 6 -17 20 -19 31 -2 11 -9 31 -17 45 -7 14
-12 25 -10 25 5 0 -30 105 -48 145 -10 23 -17 72 -19 145 -2 61 -6 121 -10
135 -11 45 -11 50 -2 50 6 0 7 5 4 10 -3 6 -1 10 6 10 6 0 22 11 34 24 13 14
26 22 31 18 4 -4 5 0 2 9 -4 9 -1 16 5 17 7 1 32 5 57 10 61 10 95 5 162 -27z
m-322 -109 c0 -15 -2 -15 -10 -2 -13 20 -13 33 0 25 6 -3 10 -14 10 -23z
m-1415 -3092 c3 -5 1 -10 -4 -10 -6 0 -11 5 -11 10 0 6 2 10 4 10 3 0 8 -4 11
-10z m-855 -314 c0 -2 -8 -10 -17 -17 -16 -13 -17 -12 -4 4 13 16 21 21 21 13z
m-60 -60 c0 -3 -4 -8 -10 -11 -5 -3 -10 -1 -10 4 0 6 5 11 10 11 6 0 10 -2 10
-4z"/>
<path d="M8185 5960 c10 -11 20 -20 22 -20 2 0 -2 9 -9 20 -7 11 -17 20 -22
20 -5 0 -1 -9 9 -20z"/>
<path d="M6971 7650 c-13 -11 -19 -20 -14 -20 6 0 18 9 28 20 23 25 17 25 -14
0z"/>
<path d="M6036 3887 c3 -10 9 -15 12 -12 3 3 0 11 -7 18 -10 9 -11 8 -5 -6z"/>
</g>
</svg>
